<?xml version="1.0" encoding="UTF-8" standalone="no"?>
<svg
   xmlns:dc="http://purl.org/dc/elements/1.1/"
   xmlns:cc="http://creativecommons.org/ns#"
   xmlns:rdf="http://www.w3.org/1999/02/22-rdf-syntax-ns#"
   xmlns:svg="http://www.w3.org/2000/svg"
   xmlns="http://www.w3.org/2000/svg"
   xmlns:sodipodi="http://sodipodi.sourceforge.net/DTD/sodipodi-0.dtd"
   xmlns:inkscape="http://www.inkscape.org/namespaces/inkscape"
   width="73pt"
   height="74pt"
   viewBox="0 0 73 74"
   version="1.1"
   id="svg2852"
   inkscape:version="0.47 r22583"
   sodipodi:docname="logo-toki.svg"
   inkscape:export-filename="D:\Downloads\2010\07\logo-toki.png"
   inkscape:export-xdpi="155.83562"
   inkscape:export-ydpi="155.83562">
  <metadata
     id="metadata2884">
    <rdf:RDF>
      <cc:Work
         rdf:about="">
        <dc:format>image/svg+xml</dc:format>
        <dc:type
           rdf:resource="http://purl.org/dc/dcmitype/StillImage" />
        <dc:title></dc:title>
      </cc:Work>
    </rdf:RDF>
  </metadata>
  <defs
     id="defs2882">
    <inkscape:perspective
       sodipodi:type="inkscape:persp3d"
       inkscape:vp_x="0 : 46.25 : 1"
       inkscape:vp_y="0 : 1000 : 0"
       inkscape:vp_z="91.25 : 46.25 : 1"
       inkscape:persp3d-origin="45.625 : 30.833333 : 1"
       id="perspective2886" />
  </defs>
  <sodipodi:namedview
     pagecolor="#ffffff"
     bordercolor="#666666"
     borderopacity="1"
     objecttolerance="10"
     gridtolerance="10"
     guidetolerance="10"
     inkscape:pageopacity="0"
     inkscape:pageshadow="2"
     inkscape:window-width="1024"
     inkscape:window-height="706"
     id="namedview2880"
     showgrid="false"
     inkscape:zoom="3.6081557"
     inkscape:cx="63.83154"
     inkscape:cy="58.877917"
     inkscape:window-x="-8"
     inkscape:window-y="-8"
     inkscape:window-maximized="1"
     inkscape:current-layer="svg2852" />
  <path
     fill="#ffffff"
     d=" M 0.00 0.00 L 73.00 0.00 L 73.00 74.00 L 0.00 74.00 L 0.00 0.00 Z"
     id="path2854" />
  <path
     fill="#ef1422"
     d=" M 29.55 17.98 C 30.87 14.73 34.93 13.74 38.11 14.18 C 44.26 15.11 49.39 20.15 50.81 26.16 C 50.84 27.84 50.68 29.52 50.35 31.17 C 49.34 34.01 46.31 34.05 43.76 33.91 C 44.31 33.22 45.43 31.85 45.99 31.17 C 46.08 29.70 46.11 28.22 46.08 26.75 C 45.20 22.74 43.24 18.55 39.47 16.54 C 37.63 15.49 34.85 15.57 33.74 17.62 C 31.67 21.40 33.44 25.83 35.18 29.38 C 36.28 30.65 37.47 31.86 38.40 33.28 C 35.93 34.74 33.12 32.42 32.71 29.95 C 31.67 25.96 30.27 22.04 29.55 17.98 Z"
     id="path2856" />
  <path
     fill="#ef1422"
     d=" M 11.00 16.14 C 16.98 16.27 22.98 16.00 28.96 16.27 C 29.78 18.24 28.44 20.13 27.97 21.99 C 27.69 21.53 27.13 20.61 26.85 20.15 C 23.20 20.63 19.48 20.66 15.84 20.08 C 15.92 21.30 16.00 22.52 16.08 23.74 C 17.18 22.56 18.32 21.24 20.14 21.65 C 21.68 24.30 22.18 27.41 22.74 30.39 C 22.25 30.74 21.28 31.45 20.79 31.81 C 23.28 31.79 25.77 31.82 28.26 31.82 C 27.43 31.29 26.60 30.76 25.77 30.24 C 24.85 27.38 23.96 24.50 23.38 21.55 C 26.28 21.59 28.56 24.03 29.42 26.63 C 31.69 32.08 37.15 35.82 43.09 35.75 C 46.15 35.95 48.30 33.01 51.40 33.52 C 52.50 37.45 53.70 41.36 54.73 45.31 C 52.55 46.23 50.34 47.05 48.17 47.97 C 47.46 45.25 46.71 42.55 45.91 39.86 C 46.18 39.35 46.72 38.34 46.99 37.83 C 44.61 37.84 42.22 37.86 39.84 37.83 C 44.23 39.16 43.58 44.54 45.03 48.07 C 44.45 48.61 43.89 49.16 43.34 49.73 C 40.17 50.70 36.99 51.62 33.78 52.42 C 29.49 52.58 25.21 52.64 20.93 52.56 C 19.78 48.60 18.67 44.62 17.51 40.66 C 17.02 39.00 16.53 37.34 16.11 35.65 C 15.13 28.98 12.66 22.65 11.00 16.14 Z"
     id="path2858" />
  <path
     fill="#fefffc"
     d=" M 33.74 17.62 C 34.85 15.57 37.63 15.49 39.47 16.54 C 43.24 18.55 45.20 22.74 46.08 26.75 C 42.41 27.44 38.62 27.84 35.18 29.38 C 33.44 25.83 31.67 21.40 33.74 17.62 Z"
     id="path2860" />
  <path
     fill="#88d9fb"
     d=" M 50.81 26.16 C 56.67 25.91 62.76 25.47 68.35 27.62 C 70.02 28.36 71.51 29.83 71.85 31.69 C 71.67 32.07 71.29 32.83 71.10 33.21 C 64.53 30.45 57.29 31.14 50.35 31.17 C 50.68 29.52 50.84 27.84 50.81 26.16 Z"
     id="path2862" />
  <path
     fill="#2ea5db"
     d=" M 35.18 29.38 C 38.62 27.84 42.41 27.44 46.08 26.75 C 46.11 28.22 46.08 29.70 45.99 31.17 C 45.19 31.66 44.39 32.15 43.58 32.64 C 43.73 30.46 42.45 28.25 40.03 28.41 C 37.65 29.32 39.60 31.72 40.41 33.01 L 39.46 33.38 L 38.40 33.28 C 37.47 31.86 36.28 30.65 35.18 29.38 Z"
     id="path2864" />
  <path
     fill="#ff0000"
     d=" M 40.41 33.01 C 39.60 31.72 37.65 29.32 40.03 28.41 C 42.45 28.25 43.73 30.46 43.58 32.64 L 43.75 33.70 C 42.25 33.35 40.75 33.51 39.25 33.71 L 39.46 33.38 L 40.41 33.01 Z"
     id="path2866" />
  <path
     fill="#2f3191"
     d=" M 71.10 33.21 C 71.29 32.83 71.67 32.07 71.85 31.69 C 72.19 33.73 73.27 35.95 72.10 37.92 C 69.32 44.28 62.52 47.16 56.80 50.26 C 56.63 50.52 56.29 51.02 56.12 51.28 C 48.83 52.47 42.20 56.07 34.95 57.45 C 25.04 59.45 14.43 60.57 4.62 57.51 C 1.43 56.87 1.46 53.31 1.09 50.78 L 1.75 51.44 C 3.39 52.59 5.23 53.51 7.25 53.72 C 16.09 54.71 25.04 53.94 33.78 52.42 C 36.99 51.62 40.17 50.70 43.34 49.73 C 43.77 49.68 44.61 49.58 45.04 49.54 C 46.07 48.99 47.11 48.47 48.17 47.97 C 50.34 47.05 52.55 46.23 54.73 45.31 C 60.86 42.49 67.75 39.44 71.10 33.21 Z"
     id="path2868" />
  <path
     fill="#88d9fb"
     d=" M 3.25 43.29 C 6.99 40.00 11.23 36.89 16.11 35.65 C 16.53 37.34 17.02 39.00 17.51 40.66 C 11.91 43.68 5.95 46.49 1.75 51.44 L 1.09 50.78 C 0.42 48.12 1.02 45.05 3.25 43.29 Z"
     id="path2870" />
  <path
     fill="#fefffc"
     d=" M 18.76 35.75 C 23.47 35.85 28.20 35.46 32.89 35.93 L 33.47 37.37 C 31.13 37.40 28.79 37.36 26.45 37.30 C 27.05 37.72 28.23 38.55 28.82 38.97 C 27.87 40.13 26.92 41.29 25.94 42.43 C 25.36 40.74 25.24 38.99 25.79 37.28 C 23.77 37.33 21.74 37.32 19.71 37.25 C 23.60 39.77 24.19 45.03 24.30 49.26 C 25.80 49.23 27.29 49.21 28.79 49.20 C 27.78 47.64 26.96 45.97 26.40 44.20 C 28.63 45.39 30.19 47.37 31.84 49.23 C 32.91 49.21 35.06 49.17 36.13 49.15 C 33.36 46.85 30.65 44.50 28.00 42.06 C 29.45 40.13 31.30 38.56 33.51 37.57 C 34.49 41.61 35.71 45.58 36.83 49.58 C 32.05 49.61 27.27 49.55 22.49 49.54 C 21.44 44.89 19.91 40.37 18.76 35.75 Z"
     id="path2872" />
  <path
     fill="#ff0000"
     d=" M 19.71 37.25 C 21.74 37.32 23.77 37.33 25.79 37.28 C 25.24 38.99 25.36 40.74 25.94 42.43 C 26.92 41.29 27.87 40.13 28.82 38.97 C 28.23 38.55 27.05 37.72 26.45 37.30 C 28.79 37.36 31.13 37.40 33.47 37.37 L 33.88 37.37 L 33.51 37.57 C 31.30 38.56 29.45 40.13 28.00 42.06 C 30.65 44.50 33.36 46.85 36.13 49.15 C 35.06 49.17 32.91 49.21 31.84 49.23 C 30.19 47.37 28.63 45.39 26.40 44.20 C 26.96 45.97 27.78 47.64 28.79 49.20 C 27.29 49.21 25.80 49.23 24.30 49.26 C 24.19 45.03 23.60 39.77 19.71 37.25 Z"
     id="path2874" />
  <path
     fill="#fefffc"
     d=" M 39.84 37.83 C 42.22 37.86 44.61 37.84 46.99 37.83 C 46.72 38.34 46.18 39.35 45.91 39.86 C 46.71 42.55 47.46 45.25 48.17 47.97 C 47.11 48.47 46.07 48.99 45.04 49.54 C 44.61 49.58 43.77 49.68 43.34 49.73 C 43.89 49.16 44.45 48.61 45.03 48.07 C 43.58 44.54 44.23 39.16 39.84 37.83 Z"
     id="path2876" />
  <path
     fill="#fefffc"
     d=" M 1.75 51.44 C 5.95 46.49 11.91 43.68 17.51 40.66 C 18.67 44.62 19.78 48.60 20.93 52.56 C 25.21 52.64 29.49 52.58 33.78 52.42 C 25.04 53.94 16.09 54.71 7.25 53.72 C 5.23 53.51 3.39 52.59 1.75 51.44 Z"
     id="path2878" />
</svg>
